<svg xmlns="http://www.w3.org/2000/svg" viewBox="0 0 811.5 777.45"><defs><style>.cls-1,.cls-2,.cls-3{fill:none;stroke:#fff;stroke-width:10px;}.cls-1{stroke-miterlimit:10;}.cls-2{stroke-linecap:round;stroke-linejoin:round;}.cls-4{fill:#fff;}</style></defs><title>Asset 1</title><g id="Layer_2" data-name="Layer 2"><g id="illustration"><circle id="left" class="cls-1" cx="155" cy="622.45" r="150"/><circle id="right" class="cls-1" cx="656.5" cy="622.45" r="150"/><path id="bottom-border" class="cls-2" d="M315.52,741.76a301.76,301.76,0,0,0,180.39-.09"/><path id="left-border" class="cls-2" d="M217,221.65A299.76,299.76,0,0,0,106.52,428.38"/><path id="right-border" class="cls-2" d="M704.6,428.29A299.75,299.75,0,0,0,594.18,221.65"/><circle id="top" class="cls-1" cx="405.57" cy="155" r="150"/><g id="play0btn"><circle class="cls-3" cx="406.57" cy="435.91" r="62.5"/><path class="cls-4" d="M437.44,432.13l-41.7-26.65a4.46,4.46,0,0,0-6.86,3.76v53.31a4.46,4.46,0,0,0,6.86,3.76l41.7-26.65A4.47,4.47,0,0,0,437.44,432.13Z"/></g></g></g></svg>